# xmcd
#
# Track frame offsets:
#	150
#	15560
#	33650
#
# Disc length: 658 seconds
# Revision: 3
# Processed by: cddbd v1.5.2PL0 Copyright (c) Steve Scherf et al.
# Submitted via: dBpowerAMP V12.0
#
DISCID=1b029003
DTITLE=Billy Ray Cyrus - Achhy Breaky Heart
DYEAR=1992
DGENRE=Country
TTITLE0=Achy Breaky Heart
TTITLE1=I'm So Miserable
TTITLE2=Wher`m I Gonna Live
EXTD=
EXTT0=
EXTT1=
EXTT2=
PLAYORDER=
